<svg xmlns="http://www.w3.org/2000/svg" xmlns:xlink="http://www.w3.org/1999/xlink" width="500" zoomAndPan="magnify" viewBox="0 0 375 374.999991" height="500" preserveAspectRatio="xMidYMid meet" version="1.0"><defs><g/><clipPath id="dd231e6f4d"><path d="M 89.546875 79 L 285.359375 79 L 285.359375 207.765625 L 89.546875 207.765625 Z M 89.546875 79 " clip-rule="nonzero"/></clipPath></defs><g clip-path="url(#dd231e6f4d)"><path fill="#edb522" d="M 178.074219 190.609375 L 178.074219 180.691406 C 178.074219 175.511719 182.3125 171.277344 187.488281 171.277344 C 187.914062 171.277344 188.332031 171.3125 188.742188 171.363281 C 193.332031 171.984375 196.898438 175.941406 196.898438 180.691406 L 196.898438 190.609375 C 193.796875 190.53125 190.65625 190.492188 187.488281 190.492188 C 184.316406 190.492188 181.179688 190.53125 178.074219 190.609375 Z M 127.753906 189.265625 C 127.753906 185.984375 130.4375 183.296875 133.722656 183.296875 C 133.992188 183.296875 134.257812 183.316406 134.519531 183.351562 C 137.429688 183.746094 139.691406 186.253906 139.691406 189.265625 L 139.691406 193.617188 C 135.570312 194.1875 131.585938 194.828125 127.753906 195.53125 Z M 129.53125 167.566406 C 129.53125 165.261719 131.417969 163.375 133.722656 163.375 C 133.996094 163.375 134.261719 163.40625 134.519531 163.453125 C 136.445312 163.828125 137.914062 165.535156 137.914062 167.566406 L 137.914062 174.152344 L 129.53125 174.152344 Z M 180.878906 146.476562 C 180.878906 142.84375 183.851562 139.867188 187.488281 139.867188 C 187.917969 139.867188 188.335938 139.914062 188.742188 139.992188 C 191.78125 140.582031 194.097656 143.273438 194.097656 146.476562 L 194.097656 156.863281 L 180.878906 156.863281 Z M 235.28125 189.265625 C 235.28125 185.984375 237.96875 183.296875 241.25 183.296875 C 241.523438 183.296875 241.789062 183.316406 242.046875 183.351562 C 244.957031 183.746094 247.222656 186.253906 247.222656 189.265625 L 247.222656 195.53125 C 243.390625 194.828125 239.40625 194.1875 235.28125 193.617188 Z M 237.0625 167.566406 C 237.0625 165.261719 238.945312 163.375 241.25 163.375 C 241.523438 163.375 241.789062 163.40625 242.046875 163.453125 C 243.976562 163.828125 245.445312 165.535156 245.445312 167.566406 L 245.445312 174.152344 L 237.0625 174.152344 Z M 258.085938 197.808594 L 258.085938 164.863281 C 258.085938 160.492188 261.628906 156.949219 266 156.949219 C 266 156.949219 265.984375 156.949219 265.972656 156.949219 C 265.988281 156.949219 266 156.949219 266 156.949219 L 266 147.289062 L 262.734375 147.289062 L 262.734375 141.046875 L 254.433594 141.046875 L 254.433594 147.289062 L 245.664062 147.289062 L 245.664062 141.046875 L 237.367188 141.046875 L 237.367188 147.289062 L 228.066406 147.289062 L 228.066406 141.046875 L 219.769531 141.046875 L 219.769531 147.289062 L 216.507812 147.289062 L 216.507812 156.949219 C 220.875 156.949219 224.421875 160.492188 224.421875 164.863281 L 224.421875 192.316406 C 221.023438 191.96875 217.558594 191.667969 214.027344 191.417969 L 214.027344 142.214844 C 214.027344 135.324219 219.613281 129.738281 226.503906 129.738281 C 226.503906 129.738281 226.246094 129.707031 225.789062 129.679688 C 226.242188 129.703125 226.503906 129.738281 226.503906 129.738281 L 226.503906 114.503906 L 221.355469 114.503906 L 221.355469 104.660156 L 208.273438 104.660156 L 208.273438 114.503906 L 194.445312 114.503906 L 194.445312 104.660156 L 188.363281 104.660156 L 188.363281 87.078125 C 190.230469 86.316406 194.398438 85.054688 200.746094 85.574219 C 209.628906 86.300781 216.671875 82.515625 216.671875 82.515625 C 216.671875 82.515625 206.71875 85.28125 199.722656 81.929688 C 192.730469 78.582031 188.363281 79.746094 188.363281 79.746094 L 186.613281 79.746094 L 186.613281 104.660156 L 181.359375 104.660156 L 181.359375 114.503906 L 166.699219 114.503906 L 166.699219 104.660156 L 153.617188 104.660156 L 153.617188 114.503906 L 148.46875 114.503906 L 148.46875 129.738281 C 155.359375 129.738281 160.945312 135.324219 160.945312 142.214844 L 160.945312 191.417969 C 157.414062 191.667969 153.949219 191.96875 150.554688 192.316406 L 150.554688 164.863281 C 150.554688 160.492188 154.097656 156.949219 158.46875 156.949219 L 158.46875 147.289062 L 155.203125 147.289062 L 155.203125 141.046875 L 146.90625 141.046875 L 146.90625 147.289062 L 138.132812 147.289062 L 138.132812 141.046875 L 129.835938 141.046875 L 129.835938 147.289062 L 120.539062 147.289062 L 120.539062 141.046875 L 112.242188 141.046875 L 112.242188 147.289062 L 108.976562 147.289062 L 108.976562 156.949219 C 113.347656 156.949219 116.890625 160.492188 116.890625 164.863281 L 116.890625 197.808594 C 105.917969 200.40625 96.632812 203.59375 89.585938 207.210938 C 112.640625 199.660156 147.925781 194.832031 187.488281 194.832031 C 227.046875 194.832031 262.332031 199.660156 285.390625 207.210938 C 278.34375 203.59375 269.054688 200.40625 258.085938 197.808594 " fill-opacity="1" fill-rule="nonzero"/></g><g fill="#fffcf9" fill-opacity="1"><g transform="translate(15.187558, 260.770137)"><g><path d="M 21.859375 0 L 21.859375 -1.984375 L 22.484375 -1.984375 C 23.015625 -1.984375 23.515625 -2.019531 23.984375 -2.09375 C 24.453125 -2.164062 24.859375 -2.320312 25.203125 -2.5625 C 25.546875 -2.800781 25.820312 -3.140625 26.03125 -3.578125 C 26.238281 -4.023438 26.34375 -4.617188 26.34375 -5.359375 L 26.34375 -16.40625 L 11.015625 -16.40625 L 11.015625 -5.359375 C 11.015625 -4.617188 11.117188 -4.023438 11.328125 -3.578125 C 11.535156 -3.140625 11.8125 -2.800781 12.15625 -2.5625 C 12.5 -2.320312 12.910156 -2.164062 13.390625 -2.09375 C 13.867188 -2.019531 14.367188 -1.984375 14.890625 -1.984375 L 15.515625 -1.984375 L 15.515625 0 L 1.796875 0 L 1.796875 -1.984375 L 2.390625 -1.984375 C 2.929688 -1.984375 3.4375 -2.019531 3.90625 -2.09375 C 4.375 -2.164062 4.78125 -2.320312 5.125 -2.5625 C 5.476562 -2.800781 5.753906 -3.140625 5.953125 -3.578125 C 6.160156 -4.023438 6.265625 -4.617188 6.265625 -5.359375 L 6.265625 -28.46875 C 6.265625 -29.15625 6.160156 -29.707031 5.953125 -30.125 C 5.742188 -30.550781 5.460938 -30.878906 5.109375 -31.109375 C 4.753906 -31.335938 4.34375 -31.484375 3.875 -31.546875 C 3.40625 -31.617188 2.910156 -31.65625 2.390625 -31.65625 L 1.796875 -31.65625 L 1.796875 -33.640625 L 15.515625 -33.640625 L 15.515625 -31.65625 L 14.890625 -31.65625 C 14.367188 -31.65625 13.867188 -31.617188 13.390625 -31.546875 C 12.910156 -31.472656 12.5 -31.316406 12.15625 -31.078125 C 11.8125 -30.835938 11.535156 -30.492188 11.328125 -30.046875 C 11.117188 -29.609375 11.015625 -29.019531 11.015625 -28.28125 L 11.015625 -18.75 L 26.34375 -18.75 L 26.34375 -28.28125 C 26.34375 -29.019531 26.238281 -29.609375 26.03125 -30.046875 C 25.820312 -30.492188 25.546875 -30.835938 25.203125 -31.078125 C 24.859375 -31.316406 24.453125 -31.472656 23.984375 -31.546875 C 23.515625 -31.617188 23.015625 -31.65625 22.484375 -31.65625 L 21.859375 -31.65625 L 21.859375 -33.640625 L 35.578125 -33.640625 L 35.578125 -31.65625 L 34.96875 -31.65625 C 34.4375 -31.65625 33.9375 -31.617188 33.46875 -31.546875 C 33 -31.472656 32.585938 -31.316406 32.234375 -31.078125 C 31.878906 -30.835938 31.601562 -30.492188 31.40625 -30.046875 C 31.207031 -29.609375 31.109375 -29.019531 31.109375 -28.28125 L 31.109375 -5.125 C 31.109375 -4.4375 31.210938 -3.878906 31.421875 -3.453125 C 31.628906 -3.035156 31.910156 -2.71875 32.265625 -2.5 C 32.617188 -2.289062 33.023438 -2.148438 33.484375 -2.078125 C 33.953125 -2.015625 34.445312 -1.984375 34.96875 -1.984375 L 35.578125 -1.984375 L 35.578125 0 Z M 21.859375 0 "/></g></g></g><g fill="#fffcf9" fill-opacity="1"><g transform="translate(52.556722, 260.770137)"><g><path d="M 9.53125 -11.25 L 7.734375 -6.3125 C 7.597656 -5.9375 7.488281 -5.566406 7.40625 -5.203125 C 7.332031 -4.847656 7.296875 -4.539062 7.296875 -4.28125 C 7.296875 -3.476562 7.550781 -2.894531 8.0625 -2.53125 C 8.582031 -2.164062 9.367188 -1.984375 10.421875 -1.984375 L 11.5 -1.984375 L 11.5 0 L 0 0 L 0 -1.984375 L 0.890625 -1.984375 C 1.359375 -1.984375 1.75 -2.03125 2.0625 -2.125 C 2.382812 -2.226562 2.675781 -2.414062 2.9375 -2.6875 C 3.207031 -2.96875 3.457031 -3.34375 3.6875 -3.8125 C 3.925781 -4.289062 4.191406 -4.90625 4.484375 -5.65625 L 14.9375 -33.640625 L 18.609375 -33.640625 L 29.265625 -4.484375 C 29.453125 -3.992188 29.640625 -3.585938 29.828125 -3.265625 C 30.023438 -2.941406 30.253906 -2.679688 30.515625 -2.484375 C 30.773438 -2.296875 31.070312 -2.164062 31.40625 -2.09375 C 31.75 -2.019531 32.148438 -1.984375 32.609375 -1.984375 L 33.234375 -1.984375 L 33.234375 0 L 20.265625 0 L 20.265625 -1.984375 L 21.359375 -1.984375 C 23.242188 -1.984375 24.1875 -2.734375 24.1875 -4.234375 C 24.1875 -4.492188 24.148438 -4.757812 24.078125 -5.03125 C 24.015625 -5.3125 23.921875 -5.628906 23.796875 -5.984375 L 21.90625 -11.25 Z M 18.125 -21.859375 C 17.632812 -23.253906 17.1875 -24.5625 16.78125 -25.78125 C 16.375 -27 16.039062 -28.175781 15.78125 -29.3125 C 15.675781 -28.75 15.550781 -28.203125 15.40625 -27.671875 C 15.257812 -27.140625 15.101562 -26.597656 14.9375 -26.046875 C 14.769531 -25.492188 14.578125 -24.914062 14.359375 -24.3125 C 14.140625 -23.707031 13.894531 -23.035156 13.625 -22.296875 L 10.421875 -13.625 L 21.046875 -13.625 Z M 18.125 -21.859375 "/></g></g></g><g fill="#fffcf9" fill-opacity="1"><g transform="translate(85.783985, 260.770137)"><g><path d="M 26.109375 -5.75 C 26.910156 -4.488281 27.6875 -3.546875 28.4375 -2.921875 C 29.1875 -2.296875 30.0625 -1.984375 31.0625 -1.984375 L 31.203125 -1.984375 L 31.203125 0 L 30.53125 0 C 29.0625 0 27.851562 -0.0507812 26.90625 -0.15625 C 25.96875 -0.269531 25.164062 -0.476562 24.5 -0.78125 C 23.84375 -1.09375 23.28125 -1.523438 22.8125 -2.078125 C 22.34375 -2.628906 21.84375 -3.347656 21.3125 -4.234375 L 14.9375 -14.84375 L 11.015625 -14.84375 L 11.015625 -5.125 C 11.015625 -4.4375 11.117188 -3.878906 11.328125 -3.453125 C 11.535156 -3.035156 11.816406 -2.71875 12.171875 -2.5 C 12.523438 -2.289062 12.9375 -2.148438 13.40625 -2.078125 C 13.875 -2.015625 14.367188 -1.984375 14.890625 -1.984375 L 15.515625 -1.984375 L 15.515625 0 L 1.796875 0 L 1.796875 -1.984375 L 2.390625 -1.984375 C 2.910156 -1.984375 3.40625 -2.015625 3.875 -2.078125 C 4.34375 -2.148438 4.753906 -2.289062 5.109375 -2.5 C 5.460938 -2.71875 5.742188 -3.035156 5.953125 -3.453125 C 6.160156 -3.878906 6.265625 -4.4375 6.265625 -5.125 L 6.265625 -28.46875 C 6.265625 -29.15625 6.160156 -29.707031 5.953125 -30.125 C 5.742188 -30.550781 5.460938 -30.878906 5.109375 -31.109375 C 4.753906 -31.335938 4.34375 -31.484375 3.875 -31.546875 C 3.40625 -31.617188 2.910156 -31.65625 2.390625 -31.65625 L 1.796875 -31.65625 L 1.796875 -33.640625 L 14.46875 -33.640625 C 18.550781 -33.640625 21.585938 -32.882812 23.578125 -31.375 C 25.578125 -29.863281 26.578125 -27.585938 26.578125 -24.546875 C 26.578125 -23.296875 26.375 -22.195312 25.96875 -21.25 C 25.5625 -20.300781 25.023438 -19.484375 24.359375 -18.796875 C 23.703125 -18.109375 22.957031 -17.535156 22.125 -17.078125 C 21.300781 -16.617188 20.476562 -16.25 19.65625 -15.96875 Z M 11.015625 -17.046875 L 14.328125 -17.046875 C 15.710938 -17.046875 16.863281 -17.195312 17.78125 -17.5 C 18.707031 -17.8125 19.445312 -18.273438 20 -18.890625 C 20.550781 -19.503906 20.941406 -20.269531 21.171875 -21.1875 C 21.410156 -22.113281 21.53125 -23.1875 21.53125 -24.40625 C 21.53125 -25.664062 21.398438 -26.738281 21.140625 -27.625 C 20.878906 -28.507812 20.457031 -29.226562 19.875 -29.78125 C 19.289062 -30.34375 18.535156 -30.75 17.609375 -31 C 16.679688 -31.257812 15.550781 -31.390625 14.21875 -31.390625 L 11.015625 -31.390625 Z M 11.015625 -17.046875 "/></g></g></g><g fill="#fffcf9" fill-opacity="1"><g transform="translate(116.687179, 260.770137)"><g><path d="M 29.875 0 L 29.875 -1.984375 L 30.03125 -1.984375 C 30.53125 -1.984375 30.984375 -2.015625 31.390625 -2.078125 C 31.796875 -2.148438 32.140625 -2.289062 32.421875 -2.5 C 32.710938 -2.707031 32.941406 -3.003906 33.109375 -3.390625 C 33.273438 -3.785156 33.375 -4.304688 33.40625 -4.953125 L 33.40625 -30.125 L 22.625 0 L 20.0625 0 L 9.140625 -30.03125 L 9.140625 -5.359375 C 9.140625 -4.617188 9.210938 -4.023438 9.359375 -3.578125 C 9.515625 -3.140625 9.742188 -2.800781 10.046875 -2.5625 C 10.347656 -2.320312 10.707031 -2.164062 11.125 -2.09375 C 11.550781 -2.019531 12.023438 -1.984375 12.546875 -1.984375 L 12.671875 -1.984375 L 12.671875 0 L 1.796875 0 L 1.796875 -1.984375 L 2.390625 -1.984375 C 2.910156 -1.984375 3.40625 -2.015625 3.875 -2.078125 C 4.34375 -2.148438 4.753906 -2.289062 5.109375 -2.5 C 5.460938 -2.71875 5.742188 -3.035156 5.953125 -3.453125 C 6.160156 -3.878906 6.265625 -4.4375 6.265625 -5.125 L 6.265625 -28.46875 C 6.265625 -29.15625 6.160156 -29.707031 5.953125 -30.125 C 5.742188 -30.550781 5.460938 -30.878906 5.109375 -31.109375 C 4.753906 -31.335938 4.34375 -31.484375 3.875 -31.546875 C 3.40625 -31.617188 2.910156 -31.65625 2.390625 -31.65625 L 1.796875 -31.65625 L 1.796875 -33.640625 L 12.546875 -33.640625 L 22.296875 -6.703125 L 31.96875 -33.640625 L 42.40625 -33.640625 L 42.40625 -31.65625 L 41.8125 -31.65625 C 41.269531 -31.65625 40.765625 -31.617188 40.296875 -31.546875 C 39.828125 -31.472656 39.414062 -31.316406 39.0625 -31.078125 C 38.71875 -30.835938 38.441406 -30.492188 38.234375 -30.046875 C 38.035156 -29.609375 37.9375 -29.019531 37.9375 -28.28125 L 37.9375 -5.359375 C 37.9375 -4.617188 38.035156 -4.023438 38.234375 -3.578125 C 38.441406 -3.140625 38.71875 -2.800781 39.0625 -2.5625 C 39.414062 -2.320312 39.828125 -2.164062 40.296875 -2.09375 C 40.765625 -2.019531 41.269531 -1.984375 41.8125 -1.984375 L 42.40625 -1.984375 L 42.40625 0 Z M 29.875 0 "/></g></g></g><g fill="#fffcf9" fill-opacity="1"><g transform="translate(160.890483, 260.770137)"><g><path d="M 32.28125 -16.859375 C 32.28125 -14.273438 31.957031 -11.914062 31.3125 -9.78125 C 30.664062 -7.644531 29.710938 -5.816406 28.453125 -4.296875 C 27.203125 -2.785156 25.65625 -1.613281 23.8125 -0.78125 C 21.96875 0.0390625 19.859375 0.453125 17.484375 0.453125 C 14.984375 0.453125 12.804688 0.0390625 10.953125 -0.78125 C 9.097656 -1.613281 7.554688 -2.785156 6.328125 -4.296875 C 5.097656 -5.816406 4.175781 -7.644531 3.5625 -9.78125 C 2.945312 -11.925781 2.640625 -14.300781 2.640625 -16.90625 C 2.640625 -19.519531 2.945312 -21.890625 3.5625 -24.015625 C 4.175781 -26.140625 5.097656 -27.953125 6.328125 -29.453125 C 7.554688 -30.953125 9.101562 -32.113281 10.96875 -32.9375 C 12.84375 -33.757812 15.03125 -34.171875 17.53125 -34.171875 C 19.90625 -34.171875 22.003906 -33.757812 23.828125 -32.9375 C 25.660156 -32.113281 27.203125 -30.945312 28.453125 -29.4375 C 29.710938 -27.925781 30.664062 -26.109375 31.3125 -23.984375 C 31.957031 -21.859375 32.28125 -19.484375 32.28125 -16.859375 Z M 7.875 -16.859375 C 7.875 -14.535156 8.046875 -12.457031 8.390625 -10.625 C 8.734375 -8.789062 9.285156 -7.238281 10.046875 -5.96875 C 10.816406 -4.707031 11.8125 -3.742188 13.03125 -3.078125 C 14.25 -2.410156 15.734375 -2.078125 17.484375 -2.078125 C 19.234375 -2.078125 20.71875 -2.410156 21.9375 -3.078125 C 23.15625 -3.742188 24.144531 -4.707031 24.90625 -5.96875 C 25.664062 -7.238281 26.210938 -8.789062 26.546875 -10.625 C 26.890625 -12.457031 27.0625 -14.535156 27.0625 -16.859375 C 27.0625 -19.191406 26.890625 -21.273438 26.546875 -23.109375 C 26.210938 -24.941406 25.664062 -26.488281 24.90625 -27.75 C 24.144531 -29.007812 23.160156 -29.96875 21.953125 -30.625 C 20.753906 -31.28125 19.28125 -31.609375 17.53125 -31.609375 C 15.78125 -31.609375 14.289062 -31.28125 13.0625 -30.625 C 11.84375 -29.96875 10.84375 -29.007812 10.0625 -27.75 C 9.289062 -26.488281 8.734375 -24.941406 8.390625 -23.109375 C 8.046875 -21.273438 7.875 -19.191406 7.875 -16.859375 Z M 7.875 -16.859375 "/></g></g></g><g fill="#fffcf9" fill-opacity="1"><g transform="translate(195.866549, 260.770137)"><g><path d="M 26.8125 0 L 9.140625 -27.15625 L 9.140625 -5.359375 C 9.140625 -4.617188 9.238281 -4.023438 9.4375 -3.578125 C 9.644531 -3.140625 9.921875 -2.800781 10.265625 -2.5625 C 10.617188 -2.320312 11.03125 -2.164062 11.5 -2.09375 C 11.976562 -2.019531 12.476562 -1.984375 13 -1.984375 L 13.625 -1.984375 L 13.625 0 L 1.796875 0 L 1.796875 -1.984375 L 2.390625 -1.984375 C 2.929688 -1.984375 3.4375 -2.019531 3.90625 -2.09375 C 4.375 -2.164062 4.78125 -2.320312 5.125 -2.5625 C 5.476562 -2.800781 5.753906 -3.140625 5.953125 -3.578125 C 6.160156 -4.023438 6.265625 -4.617188 6.265625 -5.359375 L 6.265625 -28.46875 C 6.265625 -29.15625 6.160156 -29.707031 5.953125 -30.125 C 5.742188 -30.550781 5.460938 -30.878906 5.109375 -31.109375 C 4.753906 -31.335938 4.34375 -31.484375 3.875 -31.546875 C 3.40625 -31.617188 2.910156 -31.65625 2.390625 -31.65625 L 1.796875 -31.65625 L 1.796875 -33.640625 L 10.421875 -33.640625 L 27.296875 -7.59375 L 27.296875 -28.46875 C 27.296875 -29.15625 27.191406 -29.707031 26.984375 -30.125 C 26.773438 -30.550781 26.492188 -30.878906 26.140625 -31.109375 C 25.785156 -31.335938 25.375 -31.484375 24.90625 -31.546875 C 24.4375 -31.617188 23.941406 -31.65625 23.421875 -31.65625 L 22.796875 -31.65625 L 22.796875 -33.640625 L 34.625 -33.640625 L 34.625 -31.65625 L 34.03125 -31.65625 C 33.5 -31.65625 33 -31.617188 32.53125 -31.546875 C 32.0625 -31.472656 31.648438 -31.316406 31.296875 -31.078125 C 30.941406 -30.835938 30.664062 -30.492188 30.46875 -30.046875 C 30.269531 -29.609375 30.171875 -29.019531 30.171875 -28.28125 L 30.171875 0 Z M 26.8125 0 "/></g></g></g><g fill="#fffcf9" fill-opacity="1"><g transform="translate(231.832068, 260.770137)"><g><path d="M 11.015625 -31.296875 L 11.015625 -17.671875 L 22.390625 -17.671875 L 22.390625 -15.375 L 11.015625 -15.375 L 11.015625 -5.359375 C 11.015625 -4.617188 11.117188 -4.023438 11.328125 -3.578125 C 11.535156 -3.140625 11.8125 -2.800781 12.15625 -2.5625 C 12.5 -2.320312 12.910156 -2.164062 13.390625 -2.09375 C 13.867188 -2.019531 14.367188 -1.984375 14.890625 -1.984375 L 16.453125 -1.984375 L 16.453125 0 L 1.796875 0 L 1.796875 -1.984375 L 2.390625 -1.984375 C 2.910156 -1.984375 3.40625 -2.015625 3.875 -2.078125 C 4.34375 -2.148438 4.753906 -2.289062 5.109375 -2.5 C 5.460938 -2.71875 5.742188 -3.035156 5.953125 -3.453125 C 6.160156 -3.878906 6.265625 -4.4375 6.265625 -5.125 L 6.265625 -28.46875 C 6.265625 -29.15625 6.160156 -29.707031 5.953125 -30.125 C 5.742188 -30.550781 5.460938 -30.878906 5.109375 -31.109375 C 4.753906 -31.335938 4.34375 -31.484375 3.875 -31.546875 C 3.40625 -31.617188 2.910156 -31.65625 2.390625 -31.65625 L 1.796875 -31.65625 L 1.796875 -33.640625 L 25.546875 -33.640625 L 25.765625 -25.40625 L 23.328125 -25.40625 L 23.109375 -27.421875 C 23.046875 -27.960938 22.921875 -28.46875 22.734375 -28.9375 C 22.546875 -29.40625 22.28125 -29.8125 21.9375 -30.15625 C 21.59375 -30.5 21.160156 -30.773438 20.640625 -30.984375 C 20.117188 -31.191406 19.488281 -31.296875 18.75 -31.296875 Z M 11.015625 -31.296875 "/></g></g></g><g fill="#fffcf9" fill-opacity="1"><g transform="translate(259.628835, 260.770137)"><g><path d="M 32.28125 -16.859375 C 32.28125 -14.273438 31.957031 -11.914062 31.3125 -9.78125 C 30.664062 -7.644531 29.710938 -5.816406 28.453125 -4.296875 C 27.203125 -2.785156 25.65625 -1.613281 23.8125 -0.78125 C 21.96875 0.0390625 19.859375 0.453125 17.484375 0.453125 C 14.984375 0.453125 12.804688 0.0390625 10.953125 -0.78125 C 9.097656 -1.613281 7.554688 -2.785156 6.328125 -4.296875 C 5.097656 -5.816406 4.175781 -7.644531 3.5625 -9.78125 C 2.945312 -11.925781 2.640625 -14.300781 2.640625 -16.90625 C 2.640625 -19.519531 2.945312 -21.890625 3.5625 -24.015625 C 4.175781 -26.140625 5.097656 -27.953125 6.328125 -29.453125 C 7.554688 -30.953125 9.101562 -32.113281 10.96875 -32.9375 C 12.84375 -33.757812 15.03125 -34.171875 17.53125 -34.171875 C 19.90625 -34.171875 22.003906 -33.757812 23.828125 -32.9375 C 25.660156 -32.113281 27.203125 -30.945312 28.453125 -29.4375 C 29.710938 -27.925781 30.664062 -26.109375 31.3125 -23.984375 C 31.957031 -21.859375 32.28125 -19.484375 32.28125 -16.859375 Z M 7.875 -16.859375 C 7.875 -14.535156 8.046875 -12.457031 8.390625 -10.625 C 8.734375 -8.789062 9.285156 -7.238281 10.046875 -5.96875 C 10.816406 -4.707031 11.8125 -3.742188 13.03125 -3.078125 C 14.25 -2.410156 15.734375 -2.078125 17.484375 -2.078125 C 19.234375 -2.078125 20.71875 -2.410156 21.9375 -3.078125 C 23.15625 -3.742188 24.144531 -4.707031 24.90625 -5.96875 C 25.664062 -7.238281 26.210938 -8.789062 26.546875 -10.625 C 26.890625 -12.457031 27.0625 -14.535156 27.0625 -16.859375 C 27.0625 -19.191406 26.890625 -21.273438 26.546875 -23.109375 C 26.210938 -24.941406 25.664062 -26.488281 24.90625 -27.75 C 24.144531 -29.007812 23.160156 -29.96875 21.953125 -30.625 C 20.753906 -31.28125 19.28125 -31.609375 17.53125 -31.609375 C 15.78125 -31.609375 14.289062 -31.28125 13.0625 -30.625 C 11.84375 -29.96875 10.84375 -29.007812 10.0625 -27.75 C 9.289062 -26.488281 8.734375 -24.941406 8.390625 -23.109375 C 8.046875 -21.273438 7.875 -19.191406 7.875 -16.859375 Z M 7.875 -16.859375 "/></g></g></g><g fill="#fffcf9" fill-opacity="1"><g transform="translate(294.604901, 260.770137)"><g><path d="M 26.109375 -5.75 C 26.910156 -4.488281 27.6875 -3.546875 28.4375 -2.921875 C 29.1875 -2.296875 30.0625 -1.984375 31.0625 -1.984375 L 31.203125 -1.984375 L 31.203125 0 L 30.53125 0 C 29.0625 0 27.851562 -0.0507812 26.90625 -0.15625 C 25.96875 -0.269531 25.164062 -0.476562 24.5 -0.78125 C 23.84375 -1.09375 23.28125 -1.523438 22.8125 -2.078125 C 22.34375 -2.628906 21.84375 -3.347656 21.3125 -4.234375 L 14.9375 -14.84375 L 11.015625 -14.84375 L 11.015625 -5.125 C 11.015625 -4.4375 11.117188 -3.878906 11.328125 -3.453125 C 11.535156 -3.035156 11.816406 -2.71875 12.171875 -2.5 C 12.523438 -2.289062 12.9375 -2.148438 13.40625 -2.078125 C 13.875 -2.015625 14.367188 -1.984375 14.890625 -1.984375 L 15.515625 -1.984375 L 15.515625 0 L 1.796875 0 L 1.796875 -1.984375 L 2.390625 -1.984375 C 2.910156 -1.984375 3.40625 -2.015625 3.875 -2.078125 C 4.34375 -2.148438 4.753906 -2.289062 5.109375 -2.5 C 5.460938 -2.71875 5.742188 -3.035156 5.953125 -3.453125 C 6.160156 -3.878906 6.265625 -4.4375 6.265625 -5.125 L 6.265625 -28.46875 C 6.265625 -29.15625 6.160156 -29.707031 5.953125 -30.125 C 5.742188 -30.550781 5.460938 -30.878906 5.109375 -31.109375 C 4.753906 -31.335938 4.34375 -31.484375 3.875 -31.546875 C 3.40625 -31.617188 2.910156 -31.65625 2.390625 -31.65625 L 1.796875 -31.65625 L 1.796875 -33.640625 L 14.46875 -33.640625 C 18.550781 -33.640625 21.585938 -32.882812 23.578125 -31.375 C 25.578125 -29.863281 26.578125 -27.585938 26.578125 -24.546875 C 26.578125 -23.296875 26.375 -22.195312 25.96875 -21.25 C 25.5625 -20.300781 25.023438 -19.484375 24.359375 -18.796875 C 23.703125 -18.109375 22.957031 -17.535156 22.125 -17.078125 C 21.300781 -16.617188 20.476562 -16.25 19.65625 -15.96875 Z M 11.015625 -17.046875 L 14.328125 -17.046875 C 15.710938 -17.046875 16.863281 -17.195312 17.78125 -17.5 C 18.707031 -17.8125 19.445312 -18.273438 20 -18.890625 C 20.550781 -19.503906 20.941406 -20.269531 21.171875 -21.1875 C 21.410156 -22.113281 21.53125 -23.1875 21.53125 -24.40625 C 21.53125 -25.664062 21.398438 -26.738281 21.140625 -27.625 C 20.878906 -28.507812 20.457031 -29.226562 19.875 -29.78125 C 19.289062 -30.34375 18.535156 -30.75 17.609375 -31 C 16.679688 -31.257812 15.550781 -31.390625 14.21875 -31.390625 L 11.015625 -31.390625 Z M 11.015625 -17.046875 "/></g></g></g><g fill="#fffcf9" fill-opacity="1"><g transform="translate(325.508096, 260.770137)"><g><path d="M 31.5625 -16.859375 C 31.5625 -14.285156 31.238281 -11.957031 30.59375 -9.875 C 29.957031 -7.800781 29 -6.03125 27.71875 -4.5625 C 26.445312 -3.101562 24.851562 -1.976562 22.9375 -1.1875 C 21.019531 -0.394531 18.78125 0 16.21875 0 L 1.796875 0 L 1.796875 -1.984375 L 2.390625 -1.984375 C 2.929688 -1.984375 3.4375 -2.019531 3.90625 -2.09375 C 4.375 -2.164062 4.78125 -2.320312 5.125 -2.5625 C 5.476562 -2.800781 5.753906 -3.140625 5.953125 -3.578125 C 6.160156 -4.023438 6.265625 -4.617188 6.265625 -5.359375 L 6.265625 -28.46875 C 6.265625 -29.15625 6.160156 -29.707031 5.953125 -30.125 C 5.742188 -30.550781 5.460938 -30.878906 5.109375 -31.109375 C 4.753906 -31.335938 4.34375 -31.484375 3.875 -31.546875 C 3.40625 -31.617188 2.910156 -31.65625 2.390625 -31.65625 L 1.796875 -31.65625 L 1.796875 -33.640625 L 16.21875 -33.640625 C 18.644531 -33.640625 20.804688 -33.265625 22.703125 -32.515625 C 24.609375 -31.773438 26.21875 -30.691406 27.53125 -29.265625 C 28.84375 -27.835938 29.84375 -26.082031 30.53125 -24 C 31.21875 -21.914062 31.5625 -19.535156 31.5625 -16.859375 Z M 15.125 -2.390625 C 16.988281 -2.390625 18.625 -2.707031 20.03125 -3.34375 C 21.4375 -3.976562 22.601562 -4.910156 23.53125 -6.140625 C 24.46875 -7.367188 25.171875 -8.878906 25.640625 -10.671875 C 26.109375 -12.472656 26.34375 -14.535156 26.34375 -16.859375 C 26.34375 -21.546875 25.410156 -25.125 23.546875 -27.59375 C 21.679688 -30.0625 18.882812 -31.296875 15.15625 -31.296875 L 11.015625 -31.296875 L 11.015625 -2.390625 Z M 15.125 -2.390625 "/></g></g></g><g fill="#edb522" fill-opacity="1"><g transform="translate(115.894542, 291.534332)"><g><path d="M 12.140625 0 L 12.140625 -0.796875 L 12.203125 -0.796875 C 12.410156 -0.796875 12.597656 -0.8125 12.765625 -0.84375 C 12.929688 -0.875 13.070312 -0.929688 13.1875 -1.015625 C 13.300781 -1.097656 13.390625 -1.21875 13.453125 -1.375 C 13.523438 -1.539062 13.566406 -1.753906 13.578125 -2.015625 L 13.578125 -12.25 L 9.1875 0 L 8.15625 0 L 3.71875 -12.203125 L 3.71875 -2.171875 C 3.71875 -1.878906 3.75 -1.640625 3.8125 -1.453125 C 3.875 -1.273438 3.960938 -1.132812 4.078125 -1.03125 C 4.203125 -0.9375 4.347656 -0.875 4.515625 -0.84375 C 4.691406 -0.8125 4.882812 -0.796875 5.09375 -0.796875 L 5.15625 -0.796875 L 5.15625 0 L 0.734375 0 L 0.734375 -0.796875 L 0.96875 -0.796875 C 1.1875 -0.796875 1.390625 -0.8125 1.578125 -0.84375 C 1.765625 -0.875 1.929688 -0.929688 2.078125 -1.015625 C 2.222656 -1.109375 2.335938 -1.238281 2.421875 -1.40625 C 2.503906 -1.582031 2.546875 -1.804688 2.546875 -2.078125 L 2.546875 -11.578125 C 2.546875 -11.847656 2.503906 -12.066406 2.421875 -12.234375 C 2.335938 -12.410156 2.222656 -12.546875 2.078125 -12.640625 C 1.929688 -12.734375 1.765625 -12.796875 1.578125 -12.828125 C 1.390625 -12.859375 1.1875 -12.875 0.96875 -12.875 L 0.734375 -12.875 L 0.734375 -13.671875 L 5.09375 -13.671875 L 9.0625 -2.71875 L 13 -13.671875 L 17.234375 -13.671875 L 17.234375 -12.875 L 17 -12.875 C 16.78125 -12.875 16.570312 -12.859375 16.375 -12.828125 C 16.1875 -12.796875 16.019531 -12.726562 15.875 -12.625 C 15.738281 -12.53125 15.628906 -12.390625 15.546875 -12.203125 C 15.460938 -12.023438 15.421875 -11.789062 15.421875 -11.5 L 15.421875 -2.171875 C 15.421875 -1.878906 15.460938 -1.640625 15.546875 -1.453125 C 15.628906 -1.273438 15.738281 -1.132812 15.875 -1.03125 C 16.019531 -0.9375 16.1875 -0.875 16.375 -0.84375 C 16.570312 -0.8125 16.78125 -0.796875 17 -0.796875 L 17.234375 -0.796875 L 17.234375 0 Z M 12.140625 0 "/></g></g></g><g fill="#edb522" fill-opacity="1"><g transform="translate(136.361396, 291.534332)"><g><path d="M 3.875 -4.578125 L 3.140625 -2.5625 C 3.085938 -2.414062 3.046875 -2.269531 3.015625 -2.125 C 2.984375 -1.976562 2.96875 -1.847656 2.96875 -1.734375 C 2.96875 -1.410156 3.070312 -1.171875 3.28125 -1.015625 C 3.488281 -0.867188 3.804688 -0.796875 4.234375 -0.796875 L 4.671875 -0.796875 L 4.671875 0 L 0 0 L 0 -0.796875 L 0.359375 -0.796875 C 0.546875 -0.796875 0.703125 -0.816406 0.828125 -0.859375 C 0.960938 -0.898438 1.082031 -0.976562 1.1875 -1.09375 C 1.300781 -1.207031 1.40625 -1.359375 1.5 -1.546875 C 1.59375 -1.742188 1.703125 -1.992188 1.828125 -2.296875 L 6.078125 -13.671875 L 7.5625 -13.671875 L 11.890625 -1.828125 C 11.972656 -1.628906 12.050781 -1.460938 12.125 -1.328125 C 12.207031 -1.191406 12.300781 -1.082031 12.40625 -1 C 12.507812 -0.925781 12.628906 -0.875 12.765625 -0.84375 C 12.898438 -0.8125 13.0625 -0.796875 13.25 -0.796875 L 13.5 -0.796875 L 13.5 0 L 8.234375 0 L 8.234375 -0.796875 L 8.6875 -0.796875 C 9.445312 -0.796875 9.828125 -1.101562 9.828125 -1.71875 C 9.828125 -1.820312 9.8125 -1.929688 9.78125 -2.046875 C 9.757812 -2.160156 9.722656 -2.289062 9.671875 -2.4375 L 8.90625 -4.578125 Z M 7.375 -8.890625 C 7.175781 -9.453125 6.992188 -9.976562 6.828125 -10.46875 C 6.660156 -10.96875 6.523438 -11.453125 6.421875 -11.921875 C 6.367188 -11.691406 6.3125 -11.46875 6.25 -11.25 C 6.195312 -11.03125 6.132812 -10.804688 6.0625 -10.578125 C 6 -10.359375 5.921875 -10.125 5.828125 -9.875 C 5.742188 -9.632812 5.644531 -9.363281 5.53125 -9.0625 L 4.234375 -5.53125 L 8.5625 -5.53125 Z M 7.375 -8.890625 "/></g></g></g><g fill="#edb522" fill-opacity="1"><g transform="translate(152.369532, 291.534332)"><g><path d="M 10.609375 -2.34375 C 10.941406 -1.832031 11.257812 -1.445312 11.5625 -1.1875 C 11.863281 -0.925781 12.21875 -0.796875 12.625 -0.796875 L 12.6875 -0.796875 L 12.6875 0 L 12.40625 0 C 11.8125 0 11.320312 -0.0195312 10.9375 -0.0625 C 10.550781 -0.101562 10.222656 -0.1875 9.953125 -0.3125 C 9.691406 -0.4375 9.460938 -0.609375 9.265625 -0.828125 C 9.078125 -1.054688 8.875 -1.351562 8.65625 -1.71875 L 6.078125 -6.03125 L 4.484375 -6.03125 L 4.484375 -2.078125 C 4.484375 -1.804688 4.523438 -1.582031 4.609375 -1.40625 C 4.691406 -1.238281 4.800781 -1.109375 4.9375 -1.015625 C 5.082031 -0.929688 5.25 -0.875 5.4375 -0.84375 C 5.632812 -0.8125 5.835938 -0.796875 6.046875 -0.796875 L 6.296875 -0.796875 L 6.296875 0 L 0.734375 0 L 0.734375 -0.796875 L 0.96875 -0.796875 C 1.1875 -0.796875 1.390625 -0.8125 1.578125 -0.84375 C 1.765625 -0.875 1.929688 -0.929688 2.078125 -1.015625 C 2.222656 -1.109375 2.335938 -1.238281 2.421875 -1.40625 C 2.503906 -1.582031 2.546875 -1.804688 2.546875 -2.078125 L 2.546875 -11.578125 C 2.546875 -11.847656 2.503906 -12.066406 2.421875 -12.234375 C 2.335938 -12.410156 2.222656 -12.546875 2.078125 -12.640625 C 1.929688 -12.734375 1.765625 -12.796875 1.578125 -12.828125 C 1.390625 -12.859375 1.1875 -12.875 0.96875 -12.875 L 0.734375 -12.875 L 0.734375 -13.671875 L 5.890625 -13.671875 C 7.546875 -13.671875 8.773438 -13.363281 9.578125 -12.75 C 10.390625 -12.132812 10.796875 -11.210938 10.796875 -9.984375 C 10.796875 -9.472656 10.710938 -9.023438 10.546875 -8.640625 C 10.390625 -8.253906 10.175781 -7.921875 9.90625 -7.640625 C 9.632812 -7.359375 9.332031 -7.125 9 -6.9375 C 8.664062 -6.75 8.328125 -6.597656 7.984375 -6.484375 Z M 4.484375 -6.9375 L 5.828125 -6.9375 C 6.390625 -6.9375 6.859375 -7 7.234375 -7.125 C 7.609375 -7.25 7.90625 -7.429688 8.125 -7.671875 C 8.351562 -7.921875 8.515625 -8.234375 8.609375 -8.609375 C 8.703125 -8.984375 8.75 -9.421875 8.75 -9.921875 C 8.75 -10.429688 8.695312 -10.863281 8.59375 -11.21875 C 8.488281 -11.582031 8.316406 -11.878906 8.078125 -12.109375 C 7.835938 -12.335938 7.53125 -12.503906 7.15625 -12.609375 C 6.78125 -12.710938 6.320312 -12.765625 5.78125 -12.765625 L 4.484375 -12.765625 Z M 4.484375 -6.9375 "/></g></g></g><g fill="#edb522" fill-opacity="1"><g transform="translate(167.433591, 291.534332)"><g><path d="M 3.875 -4.578125 L 3.140625 -2.5625 C 3.085938 -2.414062 3.046875 -2.269531 3.015625 -2.125 C 2.984375 -1.976562 2.96875 -1.847656 2.96875 -1.734375 C 2.96875 -1.410156 3.070312 -1.171875 3.28125 -1.015625 C 3.488281 -0.867188 3.804688 -0.796875 4.234375 -0.796875 L 4.671875 -0.796875 L 4.671875 0 L 0 0 L 0 -0.796875 L 0.359375 -0.796875 C 0.546875 -0.796875 0.703125 -0.816406 0.828125 -0.859375 C 0.960938 -0.898438 1.082031 -0.976562 1.1875 -1.09375 C 1.300781 -1.207031 1.40625 -1.359375 1.5 -1.546875 C 1.59375 -1.742188 1.703125 -1.992188 1.828125 -2.296875 L 6.078125 -13.671875 L 7.5625 -13.671875 L 11.890625 -1.828125 C 11.972656 -1.628906 12.050781 -1.460938 12.125 -1.328125 C 12.207031 -1.191406 12.300781 -1.082031 12.40625 -1 C 12.507812 -0.925781 12.628906 -0.875 12.765625 -0.84375 C 12.898438 -0.8125 13.0625 -0.796875 13.25 -0.796875 L 13.5 -0.796875 L 13.5 0 L 8.234375 0 L 8.234375 -0.796875 L 8.6875 -0.796875 C 9.445312 -0.796875 9.828125 -1.101562 9.828125 -1.71875 C 9.828125 -1.820312 9.8125 -1.929688 9.78125 -2.046875 C 9.757812 -2.160156 9.722656 -2.289062 9.671875 -2.4375 L 8.90625 -4.578125 Z M 7.375 -8.890625 C 7.175781 -9.453125 6.992188 -9.976562 6.828125 -10.46875 C 6.660156 -10.96875 6.523438 -11.453125 6.421875 -11.921875 C 6.367188 -11.691406 6.3125 -11.46875 6.25 -11.25 C 6.195312 -11.03125 6.132812 -10.804688 6.0625 -10.578125 C 6 -10.359375 5.921875 -10.125 5.828125 -9.875 C 5.742188 -9.632812 5.644531 -9.363281 5.53125 -9.0625 L 4.234375 -5.53125 L 8.5625 -5.53125 Z M 7.375 -8.890625 "/></g></g></g><g fill="#edb522" fill-opacity="1"><g transform="translate(183.441726, 291.534332)"><g><path d="M 6.8125 -2.171875 C 6.8125 -1.878906 6.851562 -1.640625 6.9375 -1.453125 C 7.03125 -1.273438 7.144531 -1.132812 7.28125 -1.03125 C 7.425781 -0.9375 7.59375 -0.875 7.78125 -0.84375 C 7.976562 -0.8125 8.179688 -0.796875 8.390625 -0.796875 L 8.828125 -0.796875 L 8.828125 0 L 2.875 0 L 2.875 -0.796875 L 3.3125 -0.796875 C 3.519531 -0.796875 3.71875 -0.8125 3.90625 -0.84375 C 4.101562 -0.875 4.269531 -0.929688 4.40625 -1.015625 C 4.550781 -1.109375 4.664062 -1.238281 4.75 -1.40625 C 4.832031 -1.582031 4.875 -1.804688 4.875 -2.078125 L 4.875 -12.71875 L 3.046875 -12.71875 C 2.765625 -12.71875 2.53125 -12.675781 2.34375 -12.59375 C 2.15625 -12.507812 2 -12.394531 1.875 -12.25 C 1.75 -12.101562 1.65625 -11.9375 1.59375 -11.75 C 1.539062 -11.5625 1.503906 -11.363281 1.484375 -11.15625 L 1.375 -10.328125 L 0.390625 -10.328125 L 0.484375 -13.671875 L 11.265625 -13.671875 L 11.359375 -10.328125 L 10.359375 -10.328125 L 10.265625 -11.15625 C 10.242188 -11.363281 10.203125 -11.5625 10.140625 -11.75 C 10.078125 -11.9375 9.984375 -12.101562 9.859375 -12.25 C 9.742188 -12.394531 9.585938 -12.507812 9.390625 -12.59375 C 9.203125 -12.675781 8.96875 -12.71875 8.6875 -12.71875 L 6.8125 -12.71875 Z M 6.8125 -2.171875 "/></g></g></g><g fill="#edb522" fill-opacity="1"><g transform="translate(197.683215, 291.534332)"><g><path d="M 8.890625 0 L 8.890625 -0.796875 L 9.140625 -0.796875 C 9.359375 -0.796875 9.5625 -0.8125 9.75 -0.84375 C 9.9375 -0.875 10.097656 -0.9375 10.234375 -1.03125 C 10.378906 -1.132812 10.492188 -1.273438 10.578125 -1.453125 C 10.660156 -1.640625 10.703125 -1.878906 10.703125 -2.171875 L 10.703125 -6.671875 L 4.484375 -6.671875 L 4.484375 -2.171875 C 4.484375 -1.878906 4.523438 -1.640625 4.609375 -1.453125 C 4.691406 -1.273438 4.800781 -1.132812 4.9375 -1.03125 C 5.082031 -0.9375 5.25 -0.875 5.4375 -0.84375 C 5.632812 -0.8125 5.835938 -0.796875 6.046875 -0.796875 L 6.296875 -0.796875 L 6.296875 0 L 0.734375 0 L 0.734375 -0.796875 L 0.96875 -0.796875 C 1.1875 -0.796875 1.390625 -0.8125 1.578125 -0.84375 C 1.773438 -0.875 1.941406 -0.9375 2.078125 -1.03125 C 2.222656 -1.132812 2.335938 -1.273438 2.421875 -1.453125 C 2.503906 -1.640625 2.546875 -1.878906 2.546875 -2.171875 L 2.546875 -11.578125 C 2.546875 -11.847656 2.503906 -12.066406 2.421875 -12.234375 C 2.335938 -12.410156 2.222656 -12.546875 2.078125 -12.640625 C 1.929688 -12.734375 1.765625 -12.796875 1.578125 -12.828125 C 1.390625 -12.859375 1.1875 -12.875 0.96875 -12.875 L 0.734375 -12.875 L 0.734375 -13.671875 L 6.296875 -13.671875 L 6.296875 -12.875 L 6.046875 -12.875 C 5.835938 -12.875 5.632812 -12.859375 5.4375 -12.828125 C 5.25 -12.796875 5.082031 -12.726562 4.9375 -12.625 C 4.800781 -12.53125 4.691406 -12.390625 4.609375 -12.203125 C 4.523438 -12.023438 4.484375 -11.789062 4.484375 -11.5 L 4.484375 -7.625 L 10.703125 -7.625 L 10.703125 -11.5 C 10.703125 -11.789062 10.660156 -12.023438 10.578125 -12.203125 C 10.492188 -12.390625 10.378906 -12.53125 10.234375 -12.625 C 10.097656 -12.726562 9.9375 -12.796875 9.75 -12.828125 C 9.5625 -12.859375 9.359375 -12.875 9.140625 -12.875 L 8.890625 -12.875 L 8.890625 -13.671875 L 14.453125 -13.671875 L 14.453125 -12.875 L 14.21875 -12.875 C 14 -12.875 13.789062 -12.859375 13.59375 -12.828125 C 13.40625 -12.796875 13.238281 -12.726562 13.09375 -12.625 C 12.957031 -12.53125 12.847656 -12.390625 12.765625 -12.203125 C 12.679688 -12.023438 12.640625 -11.789062 12.640625 -11.5 L 12.640625 -2.078125 C 12.640625 -1.804688 12.679688 -1.582031 12.765625 -1.40625 C 12.859375 -1.238281 12.972656 -1.109375 13.109375 -1.015625 C 13.253906 -0.929688 13.421875 -0.875 13.609375 -0.84375 C 13.804688 -0.8125 14.007812 -0.796875 14.21875 -0.796875 L 14.453125 -0.796875 L 14.453125 0 Z M 8.890625 0 "/></g></g></g><g fill="#edb522" fill-opacity="1"><g transform="translate(215.373881, 291.534332)"><g><path d="M 13.125 -6.859375 C 13.125 -5.804688 12.992188 -4.84375 12.734375 -3.96875 C 12.472656 -3.101562 12.082031 -2.363281 11.5625 -1.75 C 11.050781 -1.132812 10.421875 -0.65625 9.671875 -0.3125 C 8.929688 0.0195312 8.078125 0.1875 7.109375 0.1875 C 6.085938 0.1875 5.203125 0.0195312 4.453125 -0.3125 C 3.703125 -0.65625 3.078125 -1.132812 2.578125 -1.75 C 2.078125 -2.363281 1.703125 -3.101562 1.453125 -3.96875 C 1.203125 -4.84375 1.078125 -5.8125 1.078125 -6.875 C 1.078125 -7.9375 1.203125 -8.898438 1.453125 -9.765625 C 1.703125 -10.628906 2.078125 -11.363281 2.578125 -11.96875 C 3.078125 -12.582031 3.707031 -13.054688 4.46875 -13.390625 C 5.226562 -13.722656 6.113281 -13.890625 7.125 -13.890625 C 8.09375 -13.890625 8.945312 -13.722656 9.6875 -13.390625 C 10.425781 -13.054688 11.050781 -12.582031 11.5625 -11.96875 C 12.082031 -11.351562 12.472656 -10.613281 12.734375 -9.75 C 12.992188 -8.882812 13.125 -7.921875 13.125 -6.859375 Z M 3.203125 -6.859375 C 3.203125 -5.910156 3.269531 -5.0625 3.40625 -4.3125 C 3.550781 -3.570312 3.78125 -2.941406 4.09375 -2.421875 C 4.40625 -1.910156 4.804688 -1.519531 5.296875 -1.25 C 5.796875 -0.976562 6.398438 -0.84375 7.109375 -0.84375 C 7.816406 -0.84375 8.414062 -0.976562 8.90625 -1.25 C 9.40625 -1.519531 9.8125 -1.910156 10.125 -2.421875 C 10.4375 -2.941406 10.660156 -3.570312 10.796875 -4.3125 C 10.929688 -5.0625 11 -5.910156 11 -6.859375 C 11 -7.804688 10.929688 -8.648438 10.796875 -9.390625 C 10.660156 -10.140625 10.4375 -10.769531 10.125 -11.28125 C 9.8125 -11.789062 9.410156 -12.179688 8.921875 -12.453125 C 8.429688 -12.722656 7.832031 -12.859375 7.125 -12.859375 C 6.414062 -12.859375 5.8125 -12.722656 5.3125 -12.453125 C 4.8125 -12.179688 4.40625 -11.789062 4.09375 -11.28125 C 3.78125 -10.769531 3.550781 -10.140625 3.40625 -9.390625 C 3.269531 -8.648438 3.203125 -7.804688 3.203125 -6.859375 Z M 3.203125 -6.859375 "/></g></g></g><g fill="#edb522" fill-opacity="1"><g transform="translate(232.092419, 291.534332)"><g><path d="M 10.890625 0 L 3.71875 -11.03125 L 3.71875 -2.171875 C 3.71875 -1.878906 3.757812 -1.640625 3.84375 -1.453125 C 3.925781 -1.273438 4.035156 -1.132812 4.171875 -1.03125 C 4.316406 -0.9375 4.484375 -0.875 4.671875 -0.84375 C 4.867188 -0.8125 5.070312 -0.796875 5.28125 -0.796875 L 5.53125 -0.796875 L 5.53125 0 L 0.734375 0 L 0.734375 -0.796875 L 0.96875 -0.796875 C 1.1875 -0.796875 1.390625 -0.8125 1.578125 -0.84375 C 1.773438 -0.875 1.941406 -0.9375 2.078125 -1.03125 C 2.222656 -1.132812 2.335938 -1.273438 2.421875 -1.453125 C 2.503906 -1.640625 2.546875 -1.878906 2.546875 -2.171875 L 2.546875 -11.578125 C 2.546875 -11.847656 2.503906 -12.066406 2.421875 -12.234375 C 2.335938 -12.410156 2.222656 -12.546875 2.078125 -12.640625 C 1.929688 -12.734375 1.765625 -12.796875 1.578125 -12.828125 C 1.390625 -12.859375 1.1875 -12.875 0.96875 -12.875 L 0.734375 -12.875 L 0.734375 -13.671875 L 4.234375 -13.671875 L 11.09375 -3.09375 L 11.09375 -11.578125 C 11.09375 -11.847656 11.050781 -12.066406 10.96875 -12.234375 C 10.882812 -12.410156 10.769531 -12.546875 10.625 -12.640625 C 10.476562 -12.734375 10.3125 -12.796875 10.125 -12.828125 C 9.9375 -12.859375 9.734375 -12.875 9.515625 -12.875 L 9.265625 -12.875 L 9.265625 -13.671875 L 14.078125 -13.671875 L 14.078125 -12.875 L 13.828125 -12.875 C 13.609375 -12.875 13.40625 -12.859375 13.21875 -12.828125 C 13.03125 -12.796875 12.863281 -12.726562 12.71875 -12.625 C 12.570312 -12.53125 12.457031 -12.390625 12.375 -12.203125 C 12.300781 -12.023438 12.265625 -11.789062 12.265625 -11.5 L 12.265625 0 Z M 10.890625 0 "/></g></g></g></svg>