<svg xmlns="http://www.w3.org/2000/svg" xmlns:xlink="http://www.w3.org/1999/xlink" width="500" zoomAndPan="magnify" viewBox="0 0 375 374.999991" height="500" preserveAspectRatio="xMidYMid meet" version="1.0"><defs><g/><clipPath id="25acd6a8f1"><path d="M 116.121094 73.789062 L 257.121094 73.789062 L 257.121094 172 L 116.121094 172 Z M 116.121094 73.789062 " clip-rule="nonzero"/></clipPath><clipPath id="b75fa97aae"><path d="M 116.121094 142 L 135 142 L 135 181.039062 L 116.121094 181.039062 Z M 116.121094 142 " clip-rule="nonzero"/></clipPath><clipPath id="2f08fb75f7"><path d="M 139 124 L 236 124 L 236 181.039062 L 139 181.039062 Z M 139 124 " clip-rule="nonzero"/></clipPath><clipPath id="947b6f76e3"><path d="M 240 142 L 257.121094 142 L 257.121094 181.039062 L 240 181.039062 Z M 240 142 " clip-rule="nonzero"/></clipPath><clipPath id="6258fa367b"><path d="M 106.601562 169.371094 L 257.351562 169.371094 L 257.351562 248.871094 L 106.601562 248.871094 Z M 106.601562 169.371094 " clip-rule="nonzero"/></clipPath></defs><g clip-path="url(#25acd6a8f1)"><path fill="#edb522" d="M 275.921875 128.574219 C 271.441406 128.609375 267.074219 127.9375 262.816406 126.554688 C 258.554688 125.171875 254.625 123.148438 251.023438 120.488281 L 249.921875 119.707031 L 240.734375 112.820312 L 235.359375 108.730469 L 216.988281 94.949219 L 187.269531 72.582031 L 157.597656 94.859375 L 139.222656 108.640625 L 133.847656 112.726562 L 124.660156 119.617188 L 123.558594 120.398438 C 119.957031 123.058594 116.027344 125.078125 111.769531 126.460938 C 107.507812 127.84375 103.140625 128.519531 98.664062 128.480469 C 94.421875 128.523438 90.273438 127.925781 86.214844 126.691406 L 86.214844 170.925781 L 89.613281 168.398438 L 97.515625 162.609375 L 114.921875 149.519531 L 134.03125 135.050781 L 139.40625 131.007812 L 158.515625 116.675781 L 187.269531 94.949219 L 216.023438 116.675781 L 235.132812 131.007812 L 240.503906 135.050781 L 259.613281 149.425781 L 277.023438 162.609375 L 284.96875 168.582031 L 288.367188 171.109375 L 288.367188 126.691406 C 284.316406 127.957031 280.167969 128.585938 275.921875 128.574219 Z M 275.921875 128.574219 " fill-opacity="1" fill-rule="nonzero"/></g><g clip-path="url(#b75fa97aae)"><path fill="#edb522" d="M 114.921875 170.925781 C 114.921875 172.472656 114.753906 174.003906 114.417969 175.519531 C 114.054688 177.019531 113.527344 178.464844 112.839844 179.847656 C 112.148438 181.230469 111.3125 182.519531 110.328125 183.710938 C 109.347656 184.90625 108.242188 185.972656 107.019531 186.917969 C 105.792969 187.859375 104.476562 188.652344 103.074219 189.296875 L 114.921875 198.164062 L 134.03125 212.492188 L 134.03125 142.628906 L 114.921875 156.960938 Z M 114.921875 170.925781 " fill-opacity="1" fill-rule="nonzero"/></g><g clip-path="url(#2f08fb75f7)"><path fill="#edb522" d="M 216.023438 208.636719 L 187.269531 230.269531 L 158.515625 208.636719 L 158.515625 124.210938 L 139.40625 138.542969 L 139.40625 216.675781 L 158.515625 231.003906 L 187.269531 252.640625 L 216.023438 231.003906 L 235.132812 216.675781 L 235.132812 138.542969 L 216.023438 124.210938 Z M 216.023438 208.636719 " fill-opacity="1" fill-rule="nonzero"/></g><g clip-path="url(#947b6f76e3)"><path fill="#edb522" d="M 260.117188 175.519531 C 259.785156 174.003906 259.613281 172.472656 259.613281 170.925781 L 259.613281 157.144531 L 240.503906 142.8125 L 240.503906 212.585938 L 259.613281 198.253906 L 271.464844 189.390625 C 270.054688 188.738281 268.734375 187.941406 267.507812 186.992188 C 266.277344 186.039062 265.171875 184.964844 264.191406 183.761719 C 263.207031 182.5625 262.371094 181.265625 261.683594 179.871094 C 260.996094 178.480469 260.476562 177.027344 260.117188 175.519531 Z M 260.117188 175.519531 " fill-opacity="1" fill-rule="nonzero"/></g><path fill="#edb522" d="M 173.765625 147.726562 L 183.136719 147.726562 C 183.316406 147.726562 183.492188 147.761719 183.660156 147.832031 C 183.832031 147.902344 183.980469 148.003906 184.109375 148.132812 C 184.238281 148.261719 184.339844 148.410156 184.40625 148.578125 C 184.476562 148.746094 184.511719 148.921875 184.511719 149.105469 L 184.511719 158.476562 C 184.511719 158.660156 184.476562 158.835938 184.40625 159.003906 C 184.339844 159.171875 184.238281 159.320312 184.109375 159.449219 C 183.980469 159.578125 183.832031 159.679688 183.660156 159.75 C 183.492188 159.820312 183.316406 159.855469 183.136719 159.855469 L 173.765625 159.855469 C 173.582031 159.855469 173.40625 159.820312 173.238281 159.75 C 173.066406 159.679688 172.917969 159.578125 172.789062 159.449219 C 172.660156 159.320312 172.5625 159.171875 172.492188 159.003906 C 172.421875 158.835938 172.386719 158.660156 172.386719 158.476562 L 172.386719 149.105469 C 172.386719 148.921875 172.421875 148.746094 172.492188 148.578125 C 172.5625 148.410156 172.660156 148.261719 172.789062 148.132812 C 172.917969 148.003906 173.066406 147.902344 173.238281 147.832031 C 173.40625 147.761719 173.582031 147.726562 173.765625 147.726562 Z M 173.765625 147.726562 " fill-opacity="1" fill-rule="nonzero"/><path fill="#edb522" d="M 191.355469 147.726562 L 200.726562 147.726562 C 200.910156 147.726562 201.085938 147.761719 201.253906 147.832031 C 201.421875 147.902344 201.574219 148.003906 201.703125 148.132812 C 201.832031 148.261719 201.929688 148.410156 202 148.578125 C 202.070312 148.746094 202.105469 148.921875 202.105469 149.105469 L 202.105469 158.476562 C 202.105469 158.660156 202.070312 158.835938 202 159.003906 C 201.929688 159.171875 201.832031 159.320312 201.703125 159.449219 C 201.574219 159.578125 201.421875 159.679688 201.253906 159.75 C 201.085938 159.820312 200.910156 159.855469 200.726562 159.855469 L 191.355469 159.855469 C 191.175781 159.855469 191 159.820312 190.828125 159.75 C 190.660156 159.679688 190.511719 159.578125 190.382812 159.449219 C 190.253906 159.320312 190.152344 159.171875 190.082031 159.003906 C 190.015625 158.835938 189.980469 158.660156 189.980469 158.476562 L 189.980469 149.105469 C 189.980469 148.921875 190.015625 148.746094 190.082031 148.578125 C 190.152344 148.410156 190.253906 148.261719 190.382812 148.132812 C 190.511719 148.003906 190.660156 147.902344 190.828125 147.832031 C 191 147.761719 191.175781 147.726562 191.355469 147.726562 Z M 191.355469 147.726562 " fill-opacity="1" fill-rule="nonzero"/><path fill="#edb522" d="M 191.355469 165.320312 L 200.726562 165.320312 C 200.910156 165.320312 201.085938 165.355469 201.253906 165.425781 C 201.421875 165.496094 201.574219 165.59375 201.703125 165.722656 C 201.832031 165.851562 201.929688 166.003906 202 166.171875 C 202.070312 166.339844 202.105469 166.515625 202.105469 166.699219 L 202.105469 176.070312 C 202.105469 176.25 202.070312 176.425781 202 176.597656 C 201.929688 176.765625 201.832031 176.914062 201.703125 177.042969 C 201.574219 177.171875 201.421875 177.273438 201.253906 177.34375 C 201.085938 177.410156 200.910156 177.445312 200.726562 177.445312 L 191.355469 177.445312 C 191.175781 177.445312 191 177.410156 190.828125 177.34375 C 190.660156 177.273438 190.511719 177.171875 190.382812 177.042969 C 190.253906 176.914062 190.152344 176.765625 190.082031 176.597656 C 190.015625 176.425781 189.980469 176.25 189.980469 176.070312 L 189.980469 166.699219 C 189.980469 166.515625 190.015625 166.339844 190.082031 166.171875 C 190.152344 166.003906 190.253906 165.851562 190.382812 165.722656 C 190.511719 165.59375 190.660156 165.496094 190.828125 165.425781 C 191 165.355469 191.175781 165.320312 191.355469 165.320312 Z M 191.355469 165.320312 " fill-opacity="1" fill-rule="nonzero"/><path fill="#edb522" d="M 173.765625 165.320312 L 183.136719 165.320312 C 183.316406 165.320312 183.492188 165.355469 183.660156 165.425781 C 183.832031 165.496094 183.980469 165.59375 184.109375 165.722656 C 184.238281 165.851562 184.339844 166.003906 184.40625 166.171875 C 184.476562 166.339844 184.511719 166.515625 184.511719 166.699219 L 184.511719 176.070312 C 184.511719 176.25 184.476562 176.425781 184.40625 176.597656 C 184.339844 176.765625 184.238281 176.914062 184.109375 177.042969 C 183.980469 177.171875 183.832031 177.273438 183.660156 177.34375 C 183.492188 177.410156 183.316406 177.445312 183.136719 177.445312 L 173.765625 177.445312 C 173.582031 177.445312 173.40625 177.410156 173.238281 177.34375 C 173.066406 177.273438 172.917969 177.171875 172.789062 177.042969 C 172.660156 176.914062 172.5625 176.765625 172.492188 176.597656 C 172.421875 176.425781 172.386719 176.25 172.386719 176.070312 L 172.386719 166.699219 C 172.386719 166.515625 172.421875 166.339844 172.492188 166.171875 C 172.5625 166.003906 172.660156 165.851562 172.789062 165.722656 C 172.917969 165.59375 173.066406 165.496094 173.238281 165.425781 C 173.40625 165.355469 173.582031 165.320312 173.765625 165.320312 Z M 173.765625 165.320312 " fill-opacity="1" fill-rule="nonzero"/><g clip-path="url(#6258fa367b)"><path fill="#edb522" d="M 262.859375 187.65625 L 181.660156 187.65625 C 174.558594 176 161.726562 168.214844 147.078125 168.214844 C 124.722656 168.214844 106.601562 186.335938 106.601562 208.691406 C 106.601562 231.042969 124.722656 249.164062 147.078125 249.164062 C 161.726562 249.164062 174.558594 241.382812 181.660156 229.722656 L 181.660156 229.726562 L 198.167969 229.726562 L 210.773438 215.988281 L 220.394531 226.9375 L 229.6875 215.988281 L 239.304688 227.269531 L 249.589844 215.988281 L 258.546875 226.9375 L 277.789062 205.703125 Z M 129.492188 218.3125 C 124.179688 218.3125 119.871094 214.003906 119.871094 208.691406 C 119.871094 203.375 124.179688 199.070312 129.492188 199.070312 C 134.804688 199.070312 139.113281 203.375 139.113281 208.691406 C 139.113281 214.003906 134.804688 218.3125 129.492188 218.3125 Z M 129.492188 218.3125 " fill-opacity="1" fill-rule="nonzero"/></g><g fill="#ffffff" fill-opacity="1"><g transform="translate(70.492962, 285.037202)"><g><path d="M 26.609375 0 L 20 0 L 20 -10.109375 L 9.21875 -10.109375 L 9.21875 0 L 2.609375 0 L 2.609375 -26.015625 L 9.21875 -26.015625 L 9.21875 -15.3125 L 20 -15.3125 L 20 -26.015625 L 26.609375 -26.015625 Z M 26.609375 0 "/></g></g></g><g fill="#ffffff" fill-opacity="1"><g transform="translate(99.703923, 285.037202)"><g><path d="M 11.5625 -20.328125 C 14.3125 -20.328125 16.445312 -19.6875 17.96875 -18.40625 C 19.5 -17.132812 20.273438 -15.359375 20.296875 -13.078125 L 20.296875 0 L 14.015625 0 L 14.015625 -2.296875 C 12.703125 -0.566406 10.65625 0.296875 7.875 0.296875 C 5.769531 0.296875 4.097656 -0.285156 2.859375 -1.453125 C 1.617188 -2.617188 1 -4.128906 1 -5.984375 C 1 -7.890625 1.660156 -9.367188 2.984375 -10.421875 C 4.316406 -11.472656 6.222656 -12.015625 8.703125 -12.046875 L 13.984375 -12.046875 L 13.984375 -12.34375 C 13.984375 -13.332031 13.648438 -14.101562 12.984375 -14.65625 C 12.328125 -15.21875 11.359375 -15.5 10.078125 -15.5 C 8.265625 -15.5 6.269531 -14.941406 4.09375 -13.828125 L 2.265625 -18.0625 C 5.515625 -19.570312 8.613281 -20.328125 11.5625 -20.328125 Z M 9.84375 -4.046875 C 10.863281 -4.046875 11.753906 -4.300781 12.515625 -4.8125 C 13.285156 -5.320312 13.773438 -5.984375 13.984375 -6.796875 L 13.984375 -8.59375 L 9.921875 -8.59375 C 7.992188 -8.59375 7.03125 -7.875 7.03125 -6.4375 C 7.03125 -5.6875 7.273438 -5.097656 7.765625 -4.671875 C 8.265625 -4.253906 8.957031 -4.046875 9.84375 -4.046875 Z M 9.84375 -4.046875 "/></g></g></g><g fill="#ffffff" fill-opacity="1"><g transform="translate(122.002376, 285.037202)"><g><path d="M 9 -20.03125 L 9 -16.65625 C 10.40625 -19.0625 12.570312 -20.285156 15.5 -20.328125 L 15.5 -14.53125 C 13.664062 -14.707031 12.164062 -14.40625 11 -13.625 C 9.832031 -12.84375 9.164062 -11.734375 9 -10.296875 L 9 0 L 2.5625 0 L 2.5625 -20.03125 Z M 9 -20.03125 "/></g></g></g><g fill="#ffffff" fill-opacity="1"><g transform="translate(137.871438, 285.037202)"><g><path d="M 29.328125 -20.328125 C 31.535156 -20.328125 33.289062 -19.625 34.59375 -18.21875 C 35.894531 -16.820312 36.546875 -14.960938 36.546875 -12.640625 L 36.546875 0 L 30.140625 0 L 30.140625 -10.859375 C 30.140625 -12.046875 29.828125 -12.976562 29.203125 -13.65625 C 28.585938 -14.34375 27.75 -14.6875 26.6875 -14.6875 C 25.5 -14.65625 24.550781 -14.195312 23.84375 -13.3125 C 23.132812 -12.4375 22.78125 -11.304688 22.78125 -9.921875 L 22.78125 0 L 16.359375 0 L 16.359375 -10.859375 C 16.359375 -12.046875 16.050781 -12.976562 15.4375 -13.65625 C 14.832031 -14.34375 14 -14.6875 12.9375 -14.6875 C 11.71875 -14.65625 10.75 -14.191406 10.03125 -13.296875 C 9.3125 -12.410156 8.953125 -11.285156 8.953125 -9.921875 L 8.953125 0 L 2.5625 0 L 2.5625 -20.03125 L 8.953125 -20.03125 L 8.953125 -16.734375 C 10.316406 -19.085938 12.523438 -20.285156 15.578125 -20.328125 C 17.179688 -20.328125 18.570312 -19.925781 19.75 -19.125 C 20.925781 -18.320312 21.765625 -17.210938 22.265625 -15.796875 C 23.578125 -18.773438 25.929688 -20.285156 29.328125 -20.328125 Z M 29.328125 -20.328125 "/></g></g></g><g fill="#ffffff" fill-opacity="1"><g transform="translate(176.410587, 285.037202)"><g><path d="M 11.859375 -20.265625 C 15.128906 -20.265625 17.765625 -19.328125 19.765625 -17.453125 C 21.773438 -15.578125 22.78125 -13.101562 22.78125 -10.03125 C 22.78125 -6.957031 21.773438 -4.476562 19.765625 -2.59375 C 17.765625 -0.71875 15.128906 0.21875 11.859375 0.21875 C 8.554688 0.21875 5.898438 -0.71875 3.890625 -2.59375 C 1.890625 -4.476562 0.890625 -6.957031 0.890625 -10.03125 C 0.890625 -13.101562 1.890625 -15.578125 3.890625 -17.453125 C 5.898438 -19.328125 8.554688 -20.265625 11.859375 -20.265625 Z M 11.859375 -15.171875 C 10.515625 -15.171875 9.425781 -14.6875 8.59375 -13.71875 C 7.769531 -12.75 7.359375 -11.5 7.359375 -9.96875 C 7.359375 -8.40625 7.769531 -7.144531 8.59375 -6.1875 C 9.425781 -5.238281 10.515625 -4.765625 11.859375 -4.765625 C 13.171875 -4.765625 14.238281 -5.238281 15.0625 -6.1875 C 15.894531 -7.144531 16.3125 -8.40625 16.3125 -9.96875 C 16.3125 -11.5 15.894531 -12.75 15.0625 -13.71875 C 14.238281 -14.6875 13.171875 -15.171875 11.859375 -15.171875 Z M 11.859375 -15.171875 "/></g></g></g><g fill="#ffffff" fill-opacity="1"><g transform="translate(200.0841, 285.037202)"><g><path d="M 15.6875 -20.328125 C 17.894531 -20.328125 19.664062 -19.625 21 -18.21875 C 22.34375 -16.820312 23.015625 -14.960938 23.015625 -12.640625 L 23.015625 0 L 16.609375 0 L 16.609375 -10.859375 C 16.609375 -12.015625 16.289062 -12.929688 15.65625 -13.609375 C 15.03125 -14.296875 14.171875 -14.640625 13.078125 -14.640625 C 11.941406 -14.640625 11.007812 -14.269531 10.28125 -13.53125 C 9.550781 -12.789062 9.125 -11.8125 9 -10.59375 L 9 0 L 2.5625 0 L 2.5625 -20.03125 L 9 -20.03125 L 9 -16.765625 C 10.40625 -19.097656 12.632812 -20.285156 15.6875 -20.328125 Z M 15.6875 -20.328125 "/></g></g></g><g fill="#ffffff" fill-opacity="1"><g transform="translate(225.095521, 285.037202)"><g><path d="M 12.421875 -22.78125 C 11.742188 -22.8125 11.1875 -22.632812 10.75 -22.25 C 10.320312 -21.863281 10.109375 -21.3125 10.109375 -20.59375 L 10.109375 -19.140625 L 14.640625 -19.140625 L 14.640625 -14.90625 L 10.109375 -14.90625 L 10.109375 0 L 3.75 0 L 3.75 -14.90625 L 1.046875 -14.90625 L 1.046875 -19.140625 L 3.75 -19.140625 L 3.75 -21 C 3.75 -23.15625 4.46875 -24.835938 5.90625 -26.046875 C 7.34375 -27.265625 9.175781 -27.875 11.40625 -27.875 C 13.539062 -27.875 15.414062 -27.40625 17.03125 -26.46875 L 14.75 -21.96875 C 14.007812 -22.507812 13.234375 -22.78125 12.421875 -22.78125 Z M 12.421875 -22.78125 "/></g></g></g><g fill="#ffffff" fill-opacity="1"><g transform="translate(239.440859, 285.037202)"><g><path d="M 11.859375 -20.265625 C 15.128906 -20.265625 17.765625 -19.328125 19.765625 -17.453125 C 21.773438 -15.578125 22.78125 -13.101562 22.78125 -10.03125 C 22.78125 -6.957031 21.773438 -4.476562 19.765625 -2.59375 C 17.765625 -0.71875 15.128906 0.21875 11.859375 0.21875 C 8.554688 0.21875 5.898438 -0.71875 3.890625 -2.59375 C 1.890625 -4.476562 0.890625 -6.957031 0.890625 -10.03125 C 0.890625 -13.101562 1.890625 -15.578125 3.890625 -17.453125 C 5.898438 -19.328125 8.554688 -20.265625 11.859375 -20.265625 Z M 11.859375 -15.171875 C 10.515625 -15.171875 9.425781 -14.6875 8.59375 -13.71875 C 7.769531 -12.75 7.359375 -11.5 7.359375 -9.96875 C 7.359375 -8.40625 7.769531 -7.144531 8.59375 -6.1875 C 9.425781 -5.238281 10.515625 -4.765625 11.859375 -4.765625 C 13.171875 -4.765625 14.238281 -5.238281 15.0625 -6.1875 C 15.894531 -7.144531 16.3125 -8.40625 16.3125 -9.96875 C 16.3125 -11.5 15.894531 -12.75 15.0625 -13.71875 C 14.238281 -14.6875 13.171875 -15.171875 11.859375 -15.171875 Z M 11.859375 -15.171875 "/></g></g></g><g fill="#ffffff" fill-opacity="1"><g transform="translate(263.114372, 285.037202)"><g><path d="M 9 -20.03125 L 9 -16.65625 C 10.40625 -19.0625 12.570312 -20.285156 15.5 -20.328125 L 15.5 -14.53125 C 13.664062 -14.707031 12.164062 -14.40625 11 -13.625 C 9.832031 -12.84375 9.164062 -11.734375 9 -10.296875 L 9 0 L 2.5625 0 L 2.5625 -20.03125 Z M 9 -20.03125 "/></g></g></g><g fill="#ffffff" fill-opacity="1"><g transform="translate(278.983435, 285.037202)"><g><path d="M 22.75 -27.578125 L 22.75 0 L 16.3125 0 L 16.3125 -2.640625 C 14.851562 -0.703125 12.847656 0.265625 10.296875 0.265625 C 7.472656 0.265625 5.203125 -0.6875 3.484375 -2.59375 C 1.773438 -4.507812 0.921875 -7.015625 0.921875 -10.109375 C 0.921875 -13.179688 1.765625 -15.644531 3.453125 -17.5 C 5.140625 -19.363281 7.367188 -20.296875 10.140625 -20.296875 C 12.796875 -20.296875 14.851562 -19.328125 16.3125 -17.390625 L 16.3125 -27.578125 Z M 8.609375 -6.171875 C 9.429688 -5.203125 10.507812 -4.71875 11.84375 -4.71875 C 13.1875 -4.71875 14.265625 -5.203125 15.078125 -6.171875 C 15.898438 -7.140625 16.3125 -8.40625 16.3125 -9.96875 C 16.3125 -11.5 15.898438 -12.75 15.078125 -13.71875 C 14.265625 -14.6875 13.1875 -15.171875 11.84375 -15.171875 C 10.507812 -15.171875 9.429688 -14.691406 8.609375 -13.734375 C 7.796875 -12.773438 7.378906 -11.519531 7.359375 -9.96875 C 7.378906 -8.40625 7.796875 -7.140625 8.609375 -6.171875 Z M 8.609375 -6.171875 "/></g></g></g><g fill="#ffffff" fill-opacity="1"><g transform="translate(117.398148, 336.437306)"><g><path d="M 22.96875 -20.8125 L 9.21875 -20.8125 L 9.21875 -15.65625 L 21.640625 -15.65625 L 21.640625 -10.4375 L 9.21875 -10.4375 L 9.21875 -5.203125 L 23.375 -5.203125 L 23.375 0 L 2.609375 0 L 2.609375 -26.015625 L 22.96875 -26.015625 Z M 22.96875 -20.8125 "/></g></g></g><g fill="#ffffff" fill-opacity="1"><g transform="translate(142.446735, 336.437306)"><g><path d="M 9.734375 -20.328125 C 12.679688 -20.328125 15.429688 -19.570312 17.984375 -18.0625 L 15.796875 -13.90625 C 13.316406 -15.238281 11.210938 -15.90625 9.484375 -15.90625 C 8.171875 -15.90625 7.515625 -15.445312 7.515625 -14.53125 C 7.515625 -14.039062 7.875 -13.625 8.59375 -13.28125 C 9.3125 -12.945312 10.1875 -12.644531 11.21875 -12.375 C 12.257812 -12.101562 13.296875 -11.765625 14.328125 -11.359375 C 15.359375 -10.953125 16.234375 -10.300781 16.953125 -9.40625 C 17.671875 -8.507812 18.03125 -7.421875 18.03125 -6.140625 C 18.03125 -4.128906 17.25 -2.554688 15.6875 -1.421875 C 14.125 -0.296875 12.09375 0.265625 9.59375 0.265625 C 6.050781 0.265625 3.050781 -0.675781 0.59375 -2.5625 L 2.640625 -6.65625 C 4.992188 -4.988281 7.359375 -4.15625 9.734375 -4.15625 C 11.203125 -4.15625 11.9375 -4.613281 11.9375 -5.53125 C 11.9375 -6.050781 11.582031 -6.484375 10.875 -6.828125 C 10.164062 -7.179688 9.300781 -7.492188 8.28125 -7.765625 C 7.269531 -8.035156 6.253906 -8.375 5.234375 -8.78125 C 4.222656 -9.195312 3.363281 -9.835938 2.65625 -10.703125 C 1.945312 -11.566406 1.59375 -12.660156 1.59375 -13.984375 C 1.59375 -15.984375 2.347656 -17.539062 3.859375 -18.65625 C 5.378906 -19.769531 7.335938 -20.328125 9.734375 -20.328125 Z M 9.734375 -20.328125 "/></g></g></g><g fill="#ffffff" fill-opacity="1"><g transform="translate(161.51191, 336.437306)"><g><path d="M 14.234375 -5.53125 L 15.5 -1.078125 C 13.9375 -0.160156 12.148438 0.296875 10.140625 0.296875 C 8.160156 0.296875 6.554688 -0.253906 5.328125 -1.359375 C 4.109375 -2.460938 3.5 -4.03125 3.5 -6.0625 L 3.5 -14.90625 L 0.703125 -14.90625 L 0.703125 -19.109375 L 3.5 -19.109375 L 3.5 -24.6875 L 9.890625 -24.6875 L 9.890625 -19.140625 L 15.125 -19.140625 L 15.125 -14.90625 L 9.890625 -14.90625 L 9.890625 -7.0625 C 9.890625 -6.289062 10.039062 -5.722656 10.34375 -5.359375 C 10.65625 -5.003906 11.125 -4.84375 11.75 -4.875 C 12.34375 -4.875 13.171875 -5.09375 14.234375 -5.53125 Z M 14.234375 -5.53125 "/></g></g></g><g fill="#ffffff" fill-opacity="1"><g transform="translate(177.678286, 336.437306)"><g><path d="M 11.5625 -20.328125 C 14.3125 -20.328125 16.445312 -19.6875 17.96875 -18.40625 C 19.5 -17.132812 20.273438 -15.359375 20.296875 -13.078125 L 20.296875 0 L 14.015625 0 L 14.015625 -2.296875 C 12.703125 -0.566406 10.65625 0.296875 7.875 0.296875 C 5.769531 0.296875 4.097656 -0.285156 2.859375 -1.453125 C 1.617188 -2.617188 1 -4.128906 1 -5.984375 C 1 -7.890625 1.660156 -9.367188 2.984375 -10.421875 C 4.316406 -11.472656 6.222656 -12.015625 8.703125 -12.046875 L 13.984375 -12.046875 L 13.984375 -12.34375 C 13.984375 -13.332031 13.648438 -14.101562 12.984375 -14.65625 C 12.328125 -15.21875 11.359375 -15.5 10.078125 -15.5 C 8.265625 -15.5 6.269531 -14.941406 4.09375 -13.828125 L 2.265625 -18.0625 C 5.515625 -19.570312 8.613281 -20.328125 11.5625 -20.328125 Z M 9.84375 -4.046875 C 10.863281 -4.046875 11.753906 -4.300781 12.515625 -4.8125 C 13.285156 -5.320312 13.773438 -5.984375 13.984375 -6.796875 L 13.984375 -8.59375 L 9.921875 -8.59375 C 7.992188 -8.59375 7.03125 -7.875 7.03125 -6.4375 C 7.03125 -5.6875 7.273438 -5.097656 7.765625 -4.671875 C 8.265625 -4.253906 8.957031 -4.046875 9.84375 -4.046875 Z M 9.84375 -4.046875 "/></g></g></g><g fill="#ffffff" fill-opacity="1"><g transform="translate(199.976739, 336.437306)"><g><path d="M 14.234375 -5.53125 L 15.5 -1.078125 C 13.9375 -0.160156 12.148438 0.296875 10.140625 0.296875 C 8.160156 0.296875 6.554688 -0.253906 5.328125 -1.359375 C 4.109375 -2.460938 3.5 -4.03125 3.5 -6.0625 L 3.5 -14.90625 L 0.703125 -14.90625 L 0.703125 -19.109375 L 3.5 -19.109375 L 3.5 -24.6875 L 9.890625 -24.6875 L 9.890625 -19.140625 L 15.125 -19.140625 L 15.125 -14.90625 L 9.890625 -14.90625 L 9.890625 -7.0625 C 9.890625 -6.289062 10.039062 -5.722656 10.34375 -5.359375 C 10.65625 -5.003906 11.125 -4.84375 11.75 -4.875 C 12.34375 -4.875 13.171875 -5.09375 14.234375 -5.53125 Z M 14.234375 -5.53125 "/></g></g></g><g fill="#ffffff" fill-opacity="1"><g transform="translate(216.143116, 336.437306)"><g><path d="M 11.34375 -20.265625 C 14.8125 -20.265625 17.414062 -19.195312 19.15625 -17.0625 C 20.90625 -14.925781 21.671875 -12.003906 21.453125 -8.296875 L 7.359375 -8.296875 C 7.679688 -7.097656 8.25 -6.175781 9.0625 -5.53125 C 9.882812 -4.894531 10.890625 -4.578125 12.078125 -4.578125 C 13.910156 -4.578125 15.507812 -5.253906 16.875 -6.609375 L 20.265625 -3.3125 C 18.109375 -0.957031 15.191406 0.21875 11.515625 0.21875 C 8.273438 0.21875 5.691406 -0.707031 3.765625 -2.5625 C 1.847656 -4.425781 0.890625 -6.894531 0.890625 -9.96875 C 0.890625 -13.0625 1.847656 -15.550781 3.765625 -17.4375 C 5.691406 -19.320312 8.21875 -20.265625 11.34375 -20.265625 Z M 7.25 -11.75 L 15.28125 -11.75 C 15.28125 -12.957031 14.925781 -13.929688 14.21875 -14.671875 C 13.507812 -15.421875 12.570312 -15.796875 11.40625 -15.796875 C 10.320312 -15.796875 9.40625 -15.429688 8.65625 -14.703125 C 7.914062 -13.972656 7.445312 -12.988281 7.25 -11.75 Z M 7.25 -11.75 "/></g></g></g><g fill="#ffffff" fill-opacity="1"><g transform="translate(238.515887, 336.437306)"><g><path d="M 9.734375 -20.328125 C 12.679688 -20.328125 15.429688 -19.570312 17.984375 -18.0625 L 15.796875 -13.90625 C 13.316406 -15.238281 11.210938 -15.90625 9.484375 -15.90625 C 8.171875 -15.90625 7.515625 -15.445312 7.515625 -14.53125 C 7.515625 -14.039062 7.875 -13.625 8.59375 -13.28125 C 9.3125 -12.945312 10.1875 -12.644531 11.21875 -12.375 C 12.257812 -12.101562 13.296875 -11.765625 14.328125 -11.359375 C 15.359375 -10.953125 16.234375 -10.300781 16.953125 -9.40625 C 17.671875 -8.507812 18.03125 -7.421875 18.03125 -6.140625 C 18.03125 -4.128906 17.25 -2.554688 15.6875 -1.421875 C 14.125 -0.296875 12.09375 0.265625 9.59375 0.265625 C 6.050781 0.265625 3.050781 -0.675781 0.59375 -2.5625 L 2.640625 -6.65625 C 4.992188 -4.988281 7.359375 -4.15625 9.734375 -4.15625 C 11.203125 -4.15625 11.9375 -4.613281 11.9375 -5.53125 C 11.9375 -6.050781 11.582031 -6.484375 10.875 -6.828125 C 10.164062 -7.179688 9.300781 -7.492188 8.28125 -7.765625 C 7.269531 -8.035156 6.253906 -8.375 5.234375 -8.78125 C 4.222656 -9.195312 3.363281 -9.835938 2.65625 -10.703125 C 1.945312 -11.566406 1.59375 -12.660156 1.59375 -13.984375 C 1.59375 -15.984375 2.347656 -17.539062 3.859375 -18.65625 C 5.378906 -19.769531 7.335938 -20.328125 9.734375 -20.328125 Z M 9.734375 -20.328125 "/></g></g></g></svg>